<?xml version="1.0" encoding="UTF-8"?>
<!-- Generator: Adobe Illustrator 25.0.1, SVG Export Plug-In . SVG Version: 6.00 Build 0)  -->
<svg xmlns="http://www.w3.org/2000/svg" xmlns:xlink="http://www.w3.org/1999/xlink" version="1.1" id="Layer_1" x="0px" y="0px" width="100px" height="100px" viewBox="0 0 100 100" style="enable-background:new 0 0 100 100;" xml:space="preserve">
<style type="text/css">
	.st0{fill:url(#SVGID_1_);}
	.st1{fill:url(#SVGID_2_);}
	.st2{fill:url(#SVGID_3_);}
	.st3{fill:url(#SVGID_4_);}
	.st4{fill:url(#SVGID_5_);}
	.st5{fill:#E30613;}
	.st6{fill:#EC1C24;}
</style>
<g>
	<g>
		<linearGradient id="SVGID_1_" gradientUnits="userSpaceOnUse" x1="23.4855" y1="21.1516" x2="32.3173" y2="28.1224">
			<stop offset="0" style="stop-color:#F2BD27"></stop>
			<stop offset="1" style="stop-color:#F28B27"></stop>
		</linearGradient>
		<polygon class="st0" points="28.04,17.46 29.99,21.37 34.31,22.01 31.19,25.07 31.91,29.37 28.04,27.36 24.17,29.37 24.89,25.07     21.78,22.01 26.1,21.37   "></polygon>
		<linearGradient id="SVGID_2_" gradientUnits="userSpaceOnUse" x1="65.7021" y1="20.621" x2="74.5339" y2="27.5917">
			<stop offset="0" style="stop-color:#F2BD27"></stop>
			<stop offset="1" style="stop-color:#F28B27"></stop>
		</linearGradient>
		<polygon class="st1" points="70.26,16.93 72.21,20.83 76.52,21.48 73.41,24.54 74.13,28.84 70.26,26.83 66.39,28.84 67.11,24.54     63.99,21.48 68.31,20.83   "></polygon>
		<linearGradient id="SVGID_3_" gradientUnits="userSpaceOnUse" x1="41.0097" y1="13.0095" x2="54.8974" y2="23.9708">
			<stop offset="0" style="stop-color:#F2BD27"></stop>
			<stop offset="1" style="stop-color:#F28B27"></stop>
		</linearGradient>
		<polygon class="st2" points="48.18,7.2 51.24,13.35 58.03,14.36 53.13,19.17 54.26,25.94 48.18,22.77 42.09,25.94 43.22,19.17     38.33,14.36 45.11,13.35   "></polygon>
		
			<linearGradient id="SVGID_4_" gradientUnits="userSpaceOnUse" x1="323.3734" y1="540.5673" x2="329.1382" y2="545.1174" gradientTransform="matrix(0.9203 0.3913 -0.3913 0.9203 -2.4837 -597.6473)">
			<stop offset="0" style="stop-color:#F2BD27"></stop>
			<stop offset="1" style="stop-color:#F28B27"></stop>
		</linearGradient>
		<polygon class="st3" points="87.24,25.3 85.08,27.15 82.32,26.44 83.41,29.07 81.87,31.47 84.71,31.25 86.53,33.45 87.19,30.68     89.84,29.64 87.42,28.15   "></polygon>
		
			<linearGradient id="SVGID_5_" gradientUnits="userSpaceOnUse" x1="256.7946" y1="571.1406" x2="262.5594" y2="575.6907" gradientTransform="matrix(0.9203 0.3913 -0.3913 0.9203 -2.4837 -597.6473)">
			<stop offset="0" style="stop-color:#F2BD27"></stop>
			<stop offset="1" style="stop-color:#F28B27"></stop>
		</linearGradient>
		<polygon class="st4" points="14.01,27.38 11.84,29.23 9.08,28.52 10.17,31.15 8.64,33.55 11.48,33.33 13.29,35.53 13.96,32.76     16.61,31.72 14.18,30.23   "></polygon>
		<g>
			<g>
				<path class="st5" d="M15.21,39.01c1.25-0.23,3.99-0.45,6.55-0.45c2.93,0,4.71,0.21,6.32,1.02c1.62,0.75,2.79,2.25,2.79,4.27      c0,1.75-0.95,3.45-3.36,4.35v0.08c2.54,0.68,4.06,2.57,4.06,5.03c0,1.95-0.95,3.48-2.32,4.52c-1.56,1.17-4.14,1.86-8.58,1.86      c-2.51,0-4.35-0.16-5.46-0.34V39.01z M20.71,46.71h1.12c2.35,0,3.48-0.83,3.48-2.17c0-1.22-0.92-1.98-2.78-1.98      c-0.93,0-1.45,0.05-1.81,0.12V46.71z M20.71,55.56c0.41,0.06,0.88,0.06,1.6,0.06c1.85,0,3.42-0.74,3.42-2.56      c0-1.75-1.61-2.43-3.69-2.43h-1.33V55.56z"></path>
				<path class="st5" d="M47.62,51.1h-7.45v3.82h8.33v4.54H34.62V38.73h13.45v4.54h-7.9v3.35h7.45V51.1z"></path>
				<path class="st5" d="M51.96,53.94c1.26,0.63,3.3,1.28,5.38,1.28c1.9,0,2.84-0.66,2.84-1.71c0-0.99-0.93-1.58-3.28-2.38      c-3.49-1.24-5.82-3.17-5.82-6.25c0-3.67,3.09-6.48,8.33-6.48c2.48,0,4.25,0.46,5.61,1.06l-1.16,4.44      c-0.89-0.39-2.43-0.98-4.51-0.98c-1.69,0-2.62,0.62-2.62,1.53c0,1.05,1.1,1.48,3.71,2.45c3.74,1.37,5.41,3.37,5.41,6.25      c0,3.58-2.78,6.63-8.84,6.63c-2.5,0-4.92-0.65-6.1-1.26L51.96,53.94z"></path>
				<path class="st5" d="M72.87,43.39h-5.28v-4.66h16.22v4.66h-5.38v16.07h-5.55V43.39z"></path>
				<path class="st5" d="M14.25,75.54c0.9,0.45,2.34,0.91,3.82,0.91c1.35,0,2.01-0.47,2.01-1.21c0-0.7-0.66-1.12-2.33-1.69      c-2.48-0.88-4.13-2.25-4.13-4.44c0-2.6,2.19-4.6,5.91-4.6c1.76,0,3.01,0.33,3.98,0.75l-0.82,3.15c-0.63-0.28-1.73-0.7-3.2-0.7      c-1.2,0-1.86,0.44-1.86,1.09c0,0.75,0.78,1.05,2.64,1.74c2.65,0.97,3.84,2.39,3.84,4.44c0,2.54-1.98,4.71-6.27,4.71      c-1.77,0-3.49-0.46-4.33-0.9L14.25,75.54z"></path>
				<path class="st5" d="M35.47,73.52h-5.29v2.71h5.91v3.22h-9.85V64.74h9.55v3.22h-5.61v2.37h5.29V73.52z"></path>
				<path class="st5" d="M38.29,64.74h3.94v11.41h5.67v3.3h-9.61V64.74z"></path>
				<path class="st5" d="M49.82,64.74h3.94v11.41h5.67v3.3h-9.61V64.74z"></path>
				<path class="st5" d="M70.58,73.52h-5.29v2.71h5.91v3.22h-9.85V64.74h9.55v3.22h-5.61v2.37h5.29V73.52z"></path>
				<path class="st5" d="M73.41,64.94c1.11-0.17,2.78-0.32,4.75-0.32c2.25,0,3.87,0.31,4.98,1.15c0.94,0.72,1.45,1.77,1.45,3.21      c0,1.83-1.38,3.14-2.52,3.56v0.08c0.98,0.42,1.51,1.36,1.88,2.64c0.44,1.5,0.93,3.64,1.21,4.2h-4.03      c-0.22-0.43-0.61-1.58-1.03-3.39c-0.4-1.76-0.94-2.13-2.16-2.13h-0.64v5.52h-3.9V64.94z M77.31,71.11h1.03      c1.48,0,2.34-0.73,2.34-1.83c0-1.1-0.73-1.73-2.04-1.74c-0.74,0-1.14,0.04-1.33,0.09V71.11z"></path>
			</g>
		</g>
		<g>
			<g>
				<path class="st6" d="M24.4,92.14c-4.49-2.69-8.59-6.09-11.95-10c-1.69-1.94-3.23-3.99-4.55-6.11c-1.32-2.12-2.51-4.28-3.45-6.49      c1.55,3.5,3.49,6.83,5.8,9.89c-1.72-2.3-3.12-4.55-4.35-6.91c-0.29-0.6-0.62-1.18-0.89-1.79c-0.27-0.61-0.55-1.23-0.82-1.85      c-0.25-0.64-0.5-1.28-0.75-1.94c-0.25-0.66-0.45-1.34-0.69-2.04c0.15,0.41,0.34,0.95,0.54,1.53C3.51,67,3.77,67.61,4,68.21      c0.23,0.6,0.49,1.15,0.71,1.62c0.22,0.46,0.4,0.83,0.51,1.03c3,6.32,7.37,11.97,12.65,16.51c5.27,4.55,11.49,7.92,18.04,9.87      c-2.62-0.7-4.68-1.5-6.48-2.37C27.61,94.02,26.06,93.1,24.4,92.14z"></path>
				<path class="st6" d="M0.43,49.63c0.02,0.7,0.04,1.39,0.06,2.08c0,0.34,0.03,0.68,0.06,1.02c0.03,0.34,0.05,0.68,0.08,1.01      C0.47,52.31,0.45,50.89,0.43,49.63z"></path>
				<path class="st6" d="M97.32,61.31l0.26-1.16c0.09-0.39,0.18-0.77,0.24-1.16c0.13-0.78,0.29-1.54,0.38-2.3      c-0.09,0.77-0.25,1.53-0.38,2.31c-0.06,0.39-0.15,0.77-0.24,1.16L97.32,61.31z"></path>
				<path class="st6" d="M41.61,98.07c0.82,0.15,1.66,0.22,2.5,0.33c6.33,0.75,12.91,0.31,19.25-1.47      c-3.45,0.97-7.11,1.61-10.81,1.82C48.85,98.96,45.13,98.72,41.61,98.07z"></path>
				<path class="st6" d="M34.95,96.3c-3.09-0.98-6.11-2.3-8.91-3.89c-2.81-1.59-5.42-3.45-7.74-5.46      C22.94,90.97,28.66,94.28,34.95,96.3z"></path>
				<path class="st6" d="M84.99,16.92c0.01,0.03-0.08-0.05-0.21-0.18c-0.13-0.13-0.26-0.25-0.36-0.35c-1.77-1.86-3.67-3.59-5.7-5.14      c0.5,0.39,0.99,0.73,1.5,1.13c0.55,0.45,0.96,0.84,1.34,1.17c0.38,0.33,0.7,0.63,1.02,0.95c0.32,0.31,0.65,0.63,1.04,1.01      C84.01,15.89,84.43,16.36,84.99,16.92z"></path>
				<path class="st6" d="M96.87,63.01c-0.01,0.05-0.03,0.11-0.04,0.16c-0.15,0.52-0.28,1.04-0.46,1.54      c-0.02,0.06-0.04,0.12-0.07,0.18C96.53,64.28,96.7,63.65,96.87,63.01z"></path>
				<path class="st6" d="M87.13,19.39c0.01,0.06,0.02,0.12,0.14,0.3c-0.43-0.58-0.92-1.12-1.38-1.67c-0.46-0.56-0.96-1.08-1.45-1.61      c0.12,0.12,0.24,0.24,0.34,0.33c0.17,0.17,0.36,0.37,0.56,0.58c0.2,0.22,0.4,0.46,0.61,0.69C86.35,18.5,86.8,18.97,87.13,19.39z      "></path>
				<path class="st6" d="M97.65,49.86c-0.02,0.92,0.01,1.74,0.02,2.18c-0.18,2.38-0.48,4.75-1.07,7.51      c-0.09,0.43-0.28,1.32-0.47,2.18c-0.16,0.49-0.33,1.02-0.51,1.58c1.78-5.93,2.43-12.34,1.76-18.83c0.1,0.87,0.14,1.75,0.22,2.65      C97.61,48.02,97.65,48.93,97.65,49.86z"></path>
				<path class="st6" d="M1.36,48.39c0.02-2.1,0.25-4.27,0.58-6.46c0.2-1.09,0.38-2.19,0.66-3.28c0.23-1.1,0.57-2.17,0.87-3.25      c1.34-4.28,3.24-8.36,5.4-11.83c-1.3,2.01-2.6,4.31-3.64,6.71c-1.05,2.39-1.9,4.86-2.53,7.13c-1.2,4.55-1.49,8.24-1.66,8.94      c-0.09,0.35-0.07-0.3,0.02-1.59c0.06-0.64,0.17-1.45,0.28-2.36c0.06-0.46,0.16-0.94,0.25-1.45c0.1-0.5,0.17-1.04,0.31-1.58      c0.46-2.17,1.19-4.57,2.03-6.84c0.86-2.26,1.88-4.37,2.76-6.04c-0.48,0.88-0.48,0.88-0.96,1.76c0.24-0.44,0.48-0.88,0.71-1.31      c0.11-0.22,0.22-0.43,0.33-0.64C6.89,26.1,7,25.9,7.11,25.7c-0.27,0.42-0.56,0.97-0.87,1.55c-0.32,0.58-0.66,1.21-0.94,1.83      c-0.29,0.62-0.59,1.2-0.81,1.71c-0.22,0.51-0.4,0.92-0.52,1.18c0,0,0.15-0.42,0.3-0.84c0.08-0.21,0.15-0.42,0.21-0.58      c0.06-0.16,0.1-0.26,0.1-0.26c-1.09,2.32-2.37,5.81-3.15,9.43c-0.8,3.62-1.1,7.33-1.19,9.91c0.15-6.29,1.44-13.2,4.46-19.83      c1.49-3.31,3.38-6.55,5.65-9.6c2.29-3.03,4.96-5.86,7.95-8.37c2.99-2.51,6.34-4.67,9.89-6.44c3.55-1.77,7.35-3.06,11.22-3.93      c3.87-0.88,7.85-1.21,11.76-1.12c3.91,0.1,7.79,0.62,11.47,1.62c4.12,1.1,8.04,2.65,11.63,4.68c0.45,0.25,0.9,0.5,1.34,0.76      c0.43,0.27,0.87,0.54,1.3,0.82l0.65,0.41l0.63,0.44c0.42,0.29,0.83,0.58,1.25,0.87c1.62,1.22,3.19,2.47,4.64,3.84      c1.48,1.34,2.81,2.8,4.1,4.28c1.24,1.51,2.45,3.05,3.5,4.67c2.13,3.22,3.9,6.61,5.19,10.13c0.12,0.33,0.25,0.73,0.41,1.17      c0.08,0.22,0.16,0.45,0.24,0.7c0.08,0.24,0.15,0.5,0.23,0.77c0.15,0.53,0.32,1.11,0.49,1.71c0.14,0.61,0.29,1.24,0.44,1.89      c0.56,2.6,0.91,5.51,1.04,7.94c0.22,4.3-0.08,8.63-0.92,12.85l-0.35,1.57c-0.06,0.26-0.11,0.53-0.18,0.78l-0.21,0.78l-0.43,1.55      l-0.5,1.53l-0.25,0.76l-0.29,0.75l-0.58,1.5l-0.64,1.47l-0.32,0.73l-0.35,0.72c-4.01,8.17-10.27,15.07-17.97,19.93      c-7.69,4.87-16.9,7.72-26.62,7.76c-0.97-0.01-2.02-0.05-2.91-0.11c-0.89-0.09-1.61-0.18-1.92-0.23      c-0.31-0.06-0.19-0.08,0.59-0.05c0.39,0.01,0.95,0.05,1.7,0.08c0.38,0,0.81,0.01,1.29,0.01c0.48,0,1.02,0.03,1.61,0      c3.93-0.09,7.86-0.62,11.7-1.6c3.84-0.99,7.56-2.46,11.07-4.32c-0.2,0.12-0.56,0.32-1.01,0.56c-0.23,0.12-0.48,0.25-0.74,0.39      c-0.27,0.12-0.56,0.26-0.85,0.39c-0.59,0.26-1.18,0.56-1.76,0.78c-0.57,0.23-1.1,0.45-1.51,0.62c2.76-1,5.19-2.18,7.5-3.51      c2.31-1.34,4.51-2.84,6.74-4.67c-2.97,2.45-6.21,4.55-9.66,6.27c4.3-2.14,8.54-5.01,12.27-8.6c3.77-3.55,6.99-7.82,9.49-12.44      c0.89-1.71,1.74-3.3,2.5-5.16c0.19-0.46,0.39-0.94,0.58-1.43c0.17-0.5,0.35-1.02,0.54-1.56c0.19-0.54,0.35-1.11,0.51-1.71      c0.15-0.6,0.34-1.22,0.46-1.9c-0.83,3.33-2.02,6.59-3.53,9.71c-1.53,3.12-3.39,6.08-5.55,8.84c-4.31,5.5-9.78,10.15-15.99,13.43      c0.02-0.01,0.05-0.03,0.06-0.04c-2.76,1.48-5.52,2.64-8.34,3.53c-2.82,0.89-5.69,1.52-8.68,1.91c0.46-0.07,0.93-0.11,1.4-0.2      c0.46-0.08,0.92-0.17,1.37-0.25c0.91-0.15,1.77-0.37,2.58-0.55l-1.61,0.36c-0.54,0.1-1.08,0.19-1.62,0.28      c-1.08,0.21-2.17,0.3-3.25,0.44c-2.17,0.19-4.35,0.31-6.52,0.22c-2.17-0.04-4.33-0.28-6.48-0.59c-1.06-0.2-2.14-0.36-3.19-0.63      c-0.53-0.13-1.06-0.24-1.58-0.38l-1.56-0.45c2.94,0.84,5.99,1.42,9.1,1.72c3.11,0.29,6.28,0.29,9.45,0      c6.33-0.58,12.64-2.41,18.36-5.41c5.73-2.98,10.86-7.12,14.98-12.01c4.13-4.89,7.22-10.54,9.11-16.41      c-1.13,3.28-2.77,6.99-4.81,10.34c-2.05,3.35-4.46,6.33-6.61,8.44c1.96-2.03,3.75-4.23,5.34-6.57c1.58-2.35,2.97-4.83,4.14-7.43      c1.17-2.59,2.12-5.3,2.84-8.08c0.72-2.78,1.16-5.64,1.38-8.53c-0.03,0.43-0.06,0.85-0.08,1.28c-0.03,0.42-0.09,0.84-0.13,1.26      c0.49-3.56,0.55-7.31,0.19-11.01c-0.37-3.7-1.19-7.35-2.32-10.77c-0.21-0.61-0.39-1.22-0.64-1.82c0.24,0.59,0.43,1.21,0.64,1.82      c2.08,6.28,2.82,12.86,2.35,19.25c0.17-2.93,0.17-6.06-0.27-9.77c0.13,1,0.18,2.23,0.27,3.57c0.03,1.34,0.07,2.79-0.01,4.25      c-0.12,3.81-0.67,7.61-1.68,11.25c1.51-5.64,1.95-11.47,1.44-16.72c0.27,3.94,0.14,7.97-0.56,11.93      c-0.68,3.95-1.8,7.84-3.41,11.46c0.85-2,1.61-4.05,2.18-6.15c0.32-1.04,0.54-2.11,0.78-3.17c0.13-0.53,0.2-1.07,0.3-1.6      c0.09-0.54,0.21-1.07,0.26-1.61c1.04-7.22,0.51-14.74-1.73-21.84c0.1,0.27,0.17,0.54,0.25,0.81c-0.14-0.55-0.34-1.08-0.52-1.61      c-0.92-2.76-2.1-5.45-3.51-8.03c-1.27-2.32-2.76-4.45-4.36-6.45c-0.27-0.34-0.54-0.68-0.81-1.02c0.52,0.64,0.81,0.92-0.19-0.32      c-2.16-2.62-4.72-5.1-7.62-7.34c-0.71-0.58-1.48-1.09-2.24-1.63c-0.76-0.53-1.57-1.02-2.36-1.54c-1.63-0.96-3.31-1.9-5.08-2.71      c-1.84-0.89-4.43-1.88-7.31-2.64c-0.77-0.25-1.19-0.32-1.57-0.39c-0.63-0.13-1.26-0.3-1.9-0.41c-0.78-0.13-1.56-0.29-2.34-0.4      C56.32,1,55.54,0.9,54.77,0.82c0.77,0.08,1.54,0.19,2.33,0.28c0.78,0.11,1.56,0.26,2.35,0.39c0.59,0.1,1.16,0.25,1.73,0.38      c-0.4-0.07-0.82-0.16-1.67-0.33C64.83,2.64,70.1,4.6,74.9,7.5c4.81,2.88,9.17,6.61,12.79,10.98c-0.46-0.5-1.11-1.21-1.38-1.51      l1.12,1.25c0.38,0.41,0.71,0.86,1.07,1.29c2.26,2.89,4.22,6.01,5.78,9.34c-0.22-0.5-0.48-0.96-0.72-1.4      c-0.24-0.44-0.46-0.86-0.69-1.25c2.47,4.59,4.28,9.58,5.19,14.74c0.47,2.58,0.75,5.2,0.78,7.83c0.01,0.33,0.02,0.66,0.02,0.99      l-0.02,0.99c-0.02,0.66-0.01,1.32-0.07,1.97l-0.15,1.97l-0.24,1.96c-1.42,9.78-5.86,18.96-12.48,26.08      c3.57-3.82,6.73-8.41,8.96-13.55c-1.48,3.41-3.35,6.66-5.56,9.66c-2.21,3-4.78,5.72-7.61,8.14c-0.69,0.63-1.45,1.17-2.17,1.75      c-0.74,0.57-1.51,1.09-2.27,1.63c-1.56,1.02-3.14,1.99-4.81,2.83c-3.31,1.7-6.8,3.04-10.4,3.94c0.64-0.2,1.34-0.42,2.05-0.64      c0.71-0.22,1.42-0.51,2.11-0.76c0.34-0.12,0.68-0.26,0.99-0.4c0.31-0.14,0.62-0.27,0.9-0.39c0.28-0.13,0.55-0.24,0.79-0.35      c0.23-0.12,0.45-0.23,0.63-0.33c-0.03,0-0.32,0.12-0.71,0.28c-0.39,0.15-0.88,0.33-1.28,0.48c-0.8,0.3-1.27,0.47,0.01-0.05      c1.17-0.46,2.26-0.99,3.32-1.48c0.52-0.27,1.03-0.53,1.52-0.79c0.25-0.13,0.5-0.25,0.74-0.39c0.24-0.14,0.47-0.28,0.7-0.41      c0.46-0.27,0.92-0.53,1.36-0.8c0.43-0.28,0.86-0.55,1.27-0.82c0.21-0.13,0.41-0.27,0.61-0.4c0.2-0.14,0.39-0.28,0.58-0.42      c0.38-0.27,0.75-0.54,1.11-0.8c2.86-2.14,4.86-4.16,6.15-5.75c0.12-0.15-0.29,0.23-0.93,0.84c-0.33,0.29-0.73,0.64-1.14,1      c-0.21,0.18-0.42,0.37-0.64,0.56c-0.22,0.18-0.45,0.36-0.67,0.53c-0.44,0.35-0.86,0.69-1.23,0.97c-0.38,0.27-0.7,0.49-0.91,0.64      c-0.44,0.3-0.47,0.29,0.23-0.28c2.34-1.86,6.34-5.53,9.59-10.34c0.25-0.33,0.48-0.69,0.71-1.05c0.23-0.36,0.46-0.72,0.7-1.08      c0.46-0.73,0.88-1.51,1.33-2.28c0.11-0.2,0.26-0.54,0.46-0.97c1.43-2.79,2.53-5.66,3.29-8.23c0.18-0.65,0.37-1.27,0.52-1.87      c0.14-0.6,0.27-1.18,0.4-1.73c0.13-0.54,0.2-1.07,0.3-1.55c0.08-0.48,0.18-0.93,0.23-1.34c0.08-0.61,0.16-1.21,0.24-1.82      c0.09-0.6,0.11-1.21,0.17-1.82c0.03-0.32,0.07-0.61,0.1-0.88c0.02-0.27,0.04-0.51,0.06-0.72l0-1.15c0-0.38,0.01-0.77-0.01-1.15      c-0.01-3.26-0.36-6.47-1.02-9.6c-0.36-1.74-0.78-3.47-1.33-5.14c-0.01,0.04,0.06,0.32-0.06,0c-0.6-1.91-1.4-3.74-2.23-5.55      c-0.89-1.78-1.82-3.54-2.92-5.19c-0.22-0.34-0.41-0.68-0.63-1c-0.22-0.32-0.43-0.63-0.64-0.94c-0.21-0.31-0.41-0.6-0.6-0.89      c-0.21-0.28-0.41-0.56-0.6-0.82c-1.38-1.66-3.75-4.34-6.72-6.87c-2.93-2.56-6.51-4.85-9.61-6.39l0.01,0.01      c-3.11-1.56-6.4-2.82-9.85-3.67c-0.56-0.15-1.1-0.3-1.61-0.43c-0.86-0.16-1.78-0.3-2.21-0.37c-2.79-0.46-5.18-0.68-7.58-0.73      c-0.44,0-1.26,0.09-2.19,0.11c-0.47,0-0.92,0.04-1.38,0.08c-0.46,0.03-0.91,0.07-1.36,0.1c-0.9,0.09-1.78,0.22-2.65,0.33      c-0.51,0.09-1.02,0.18-1.52,0.27L40.26,2.6L39.5,2.77C38.99,2.89,38.48,3,37.97,3.12c-0.51,0.13-1.01,0.28-1.52,0.42      c-6.82,1.93-13.07,5.4-18.31,9.93c-0.18,0.13-0.24,0.14-0.3,0.16c-0.41,0.36-0.86,0.82-1.32,1.25      c-0.23,0.22-0.46,0.43-0.67,0.64c-0.21,0.21-0.39,0.41-0.56,0.59c0.12-0.14,0.19-0.23,0.16-0.22c-0.54,0.58-0.97,1.04-1.35,1.44      c-0.36,0.41-0.67,0.76-0.96,1.1c-0.15,0.17-0.3,0.33-0.45,0.51c-0.15,0.18-0.3,0.36-0.46,0.56c-0.32,0.39-0.69,0.83-1.12,1.4      c-0.37,0.53-0.7,1.03-1.06,1.55c-0.19,0.25-0.35,0.52-0.53,0.78c-1.87,2.64-3.35,5.53-4.67,8.88      c-1.33,3.34-2.31,6.83-2.86,10.39c-0.1,0.71-0.18,1.3-0.26,1.84c-0.09,0.53-0.11,1-0.17,1.43c-0.05,0.44-0.09,0.85-0.14,1.27      C1.41,47.45,1.39,47.89,1.36,48.39z"></path>
				<path class="st6" d="M77.96,10.7c-2.69-1.98-5.59-3.67-8.62-5.05C72.61,7.11,75.42,8.72,77.96,10.7z"></path>
				<path class="st6" d="M77.61,88.57c-0.55,0.36-1.13,0.75-1.76,1.12c-0.63,0.38-1.28,0.8-1.99,1.17      c7.3-4.25,13.47-10.42,17.66-17.93l0.01-0.01c-1.67,3-4.1,6.47-6.79,9.27C82.1,85.03,79.32,87.27,77.61,88.57z"></path>
				<path class="st6" d="M84.78,16.75c-0.1-0.09-0.21-0.21-0.34-0.33c-0.01-0.01-0.01-0.01-0.02-0.02      C84.52,16.49,84.64,16.61,84.78,16.75z"></path>
				<path class="st6" d="M63.34,96.58c-0.27,0.08-0.54,0.15-0.81,0.23l1.53-0.44c0.51-0.14,1.01-0.34,1.51-0.5      c1.01-0.32,1.99-0.74,2.98-1.13C66.99,95.39,65.22,96.06,63.34,96.58z"></path>
				<path class="st6" d="M40.74,97.54c-0.27-0.05-0.53-0.09-0.8-0.15l-0.79-0.18c-0.53-0.12-1.06-0.24-1.58-0.37      c-1.04-0.3-2.1-0.56-3.11-0.93c-2.07-0.65-4.06-1.52-6.02-2.44c-5.01-2.46-9.44-5.8-13.08-9.53      C22.15,90.85,31.07,95.69,40.74,97.54z"></path>
				<path class="st6" d="M62.94,95.56c-0.42,0.11-0.84,0.24-1.27,0.34c-0.43,0.09-0.86,0.19-1.29,0.28      c-0.86,0.21-1.74,0.32-2.61,0.47c0.87-0.16,1.75-0.29,2.61-0.5l1.29-0.29c0.43-0.11,0.85-0.24,1.27-0.35      C62.63,95.6,62.9,95.55,62.94,95.56z"></path>
				<path class="st6" d="M79.17,88.65c-0.35,0.26-0.71,0.51-1.05,0.76c0.91-0.64,1.76-1.36,2.62-2.06      C80.42,87.61,79.68,88.22,79.17,88.65z"></path>
				<path class="st6" d="M44.3,96.91c0.64,0.1,1.29,0.14,1.94,0.19c0.65,0.05,1.29,0.11,1.94,0.12c-0.77,0.01-1.53-0.06-2.29-0.09      C45.46,97.08,44.92,97.02,44.3,96.91z"></path>
				<path class="st6" d="M25.33,90.45c-0.76-0.47-1.49-0.95-2.21-1.42c-0.7-0.51-1.4-0.98-2.05-1.49c1.65,1.22,3.39,2.42,5.21,3.42      C25.86,90.74,25.52,90.57,25.33,90.45z"></path>
			</g>
		</g>
	</g>
</g>
</svg>
